<svg width="126" height="42" viewBox="0 0 126 42" fill="none" xmlns="http://www.w3.org/2000/svg">
<g filter="url(#filter0_d_2002_933)">
<mask id="path-1-outside-1_2002_933" maskUnits="userSpaceOnUse" x="36" y="8" width="78" height="26" fill="black">
<rect fill="white" x="36" y="8" width="78" height="26"/>
<path d="M37.075 28V9.375H48.875V11.625H39.525V17.65H48V19.9H39.525V28H37.075ZM58.0502 28.3C56.8669 28.3 55.7835 28.0833 54.8002 27.65C53.8169 27.2 52.9835 26.5917 52.3002 25.825C51.6169 25.0583 51.1252 24.2 50.8252 23.25L52.9502 22.375C53.4002 23.575 54.0669 24.5 54.9502 25.15C55.8502 25.7833 56.9002 26.1 58.1002 26.1C58.8335 26.1 59.4752 25.9833 60.0252 25.75C60.5752 25.5167 61.0002 25.1917 61.3002 24.775C61.6169 24.3417 61.7752 23.8417 61.7752 23.275C61.7752 22.4917 61.5502 21.875 61.1002 21.425C60.6669 20.9583 60.0252 20.6083 59.1752 20.375L55.7502 19.325C54.4002 18.9083 53.3669 18.25 52.6502 17.35C51.9335 16.45 51.5752 15.4167 51.5752 14.25C51.5752 13.2333 51.8169 12.3417 52.3002 11.575C52.8002 10.7917 53.4835 10.1833 54.3502 9.75C55.2335 9.3 56.2335 9.075 57.3502 9.075C58.4669 9.075 59.4752 9.275 60.3752 9.675C61.2919 10.075 62.0669 10.6167 62.7002 11.3C63.3335 11.9667 63.8002 12.7333 64.1002 13.6L62.0002 14.475C61.6002 13.425 61.0002 12.6333 60.2002 12.1C59.4002 11.55 58.4585 11.275 57.3752 11.275C56.7085 11.275 56.1169 11.3917 55.6002 11.625C55.1002 11.8417 54.7085 12.1667 54.4252 12.6C54.1585 13.0167 54.0252 13.5167 54.0252 14.1C54.0252 14.7833 54.2419 15.3917 54.6752 15.925C55.1085 16.4583 55.7669 16.8667 56.6502 17.15L59.7752 18.075C61.2419 18.525 62.3502 19.1667 63.1002 20C63.8502 20.8333 64.2252 21.8667 64.2252 23.1C64.2252 24.1167 63.9585 25.0167 63.4252 25.8C62.9085 26.5833 62.1835 27.2 61.2502 27.65C60.3335 28.0833 59.2669 28.3 58.0502 28.3ZM67.5373 28V9.075H69.8623V17.15L69.4373 16.925C69.7706 16.075 70.304 15.4167 71.0373 14.95C71.7873 14.4667 72.6623 14.225 73.6623 14.225C74.629 14.225 75.4873 14.4417 76.2373 14.875C77.004 15.3083 77.604 15.9083 78.0373 16.675C78.4873 17.4417 78.7123 18.3083 78.7123 19.275V28H76.3623V20.025C76.3623 19.275 76.2206 18.6417 75.9373 18.125C75.6706 17.6083 75.2956 17.2083 74.8123 16.925C74.329 16.625 73.7706 16.475 73.1373 16.475C72.5206 16.475 71.9623 16.625 71.4623 16.925C70.9623 17.2083 70.5706 17.6167 70.2873 18.15C70.004 18.6667 69.8623 19.2917 69.8623 20.025V28H67.5373ZM88.4393 28.3C87.1393 28.3 85.9643 28 84.9143 27.4C83.8643 26.7833 83.0309 25.9417 82.4143 24.875C81.7976 23.8083 81.4893 22.6 81.4893 21.25C81.4893 19.9 81.7893 18.7 82.3893 17.65C83.0059 16.6 83.8393 15.7667 84.8893 15.15C85.9393 14.5333 87.1226 14.225 88.4393 14.225C89.7393 14.225 90.9143 14.5333 91.9643 15.15C93.0143 15.75 93.8393 16.575 94.4393 17.625C95.0559 18.675 95.3643 19.8833 95.3643 21.25C95.3643 22.6167 95.0476 23.8333 94.4143 24.9C93.7809 25.95 92.9393 26.7833 91.8893 27.4C90.8559 28 89.7059 28.3 88.4393 28.3ZM88.4393 26.05C89.2726 26.05 90.0226 25.8417 90.6893 25.425C91.3726 25.0083 91.9059 24.4333 92.2893 23.7C92.6893 22.9667 92.8893 22.15 92.8893 21.25C92.8893 20.3333 92.6893 19.525 92.2893 18.825C91.9059 18.1083 91.3726 17.5417 90.6893 17.125C90.0226 16.6917 89.2726 16.475 88.4393 16.475C87.5893 16.475 86.8226 16.6917 86.1393 17.125C85.4726 17.5417 84.9393 18.1083 84.5393 18.825C84.1393 19.525 83.9393 20.3333 83.9393 21.25C83.9393 22.15 84.1393 22.9667 84.5393 23.7C84.9393 24.4333 85.4726 25.0083 86.1393 25.425C86.8226 25.8417 87.5893 26.05 88.4393 26.05ZM98.3967 33V14.525H100.672V17.425L100.372 16.85C100.872 16.05 101.555 15.4167 102.422 14.95C103.288 14.4667 104.28 14.225 105.397 14.225C106.663 14.225 107.797 14.5333 108.797 15.15C109.813 15.7667 110.613 16.6083 111.197 17.675C111.78 18.725 112.072 19.925 112.072 21.275C112.072 22.5917 111.78 23.7833 111.197 24.85C110.613 25.9167 109.813 26.7583 108.797 27.375C107.797 27.9917 106.655 28.3 105.372 28.3C104.288 28.3 103.297 28.0583 102.397 27.575C101.513 27.0917 100.83 26.4083 100.347 25.525L100.722 25.125V33H98.3967ZM105.197 26.05C106.047 26.05 106.805 25.8417 107.472 25.425C108.138 25.0083 108.655 24.4417 109.022 23.725C109.405 22.9917 109.597 22.175 109.597 21.275C109.597 20.3417 109.405 19.525 109.022 18.825C108.655 18.1083 108.138 17.5417 107.472 17.125C106.805 16.6917 106.047 16.475 105.197 16.475C104.347 16.475 103.58 16.6833 102.897 17.1C102.23 17.5167 101.697 18.0917 101.297 18.825C100.913 19.5417 100.722 20.3583 100.722 21.275C100.722 22.175 100.913 22.9917 101.297 23.725C101.697 24.4417 102.23 25.0083 102.897 25.425C103.58 25.8417 104.347 26.05 105.197 26.05Z"/>
</mask>
<path d="M37.075 28V9.375H48.875V11.625H39.525V17.65H48V19.9H39.525V28H37.075ZM58.0502 28.3C56.8669 28.3 55.7835 28.0833 54.8002 27.65C53.8169 27.2 52.9835 26.5917 52.3002 25.825C51.6169 25.0583 51.1252 24.2 50.8252 23.25L52.9502 22.375C53.4002 23.575 54.0669 24.5 54.9502 25.15C55.8502 25.7833 56.9002 26.1 58.1002 26.1C58.8335 26.1 59.4752 25.9833 60.0252 25.75C60.5752 25.5167 61.0002 25.1917 61.3002 24.775C61.6169 24.3417 61.7752 23.8417 61.7752 23.275C61.7752 22.4917 61.5502 21.875 61.1002 21.425C60.6669 20.9583 60.0252 20.6083 59.1752 20.375L55.7502 19.325C54.4002 18.9083 53.3669 18.25 52.6502 17.35C51.9335 16.45 51.5752 15.4167 51.5752 14.25C51.5752 13.2333 51.8169 12.3417 52.3002 11.575C52.8002 10.7917 53.4835 10.1833 54.3502 9.75C55.2335 9.3 56.2335 9.075 57.3502 9.075C58.4669 9.075 59.4752 9.275 60.3752 9.675C61.2919 10.075 62.0669 10.6167 62.7002 11.3C63.3335 11.9667 63.8002 12.7333 64.1002 13.6L62.0002 14.475C61.6002 13.425 61.0002 12.6333 60.2002 12.1C59.4002 11.55 58.4585 11.275 57.3752 11.275C56.7085 11.275 56.1169 11.3917 55.6002 11.625C55.1002 11.8417 54.7085 12.1667 54.4252 12.6C54.1585 13.0167 54.0252 13.5167 54.0252 14.1C54.0252 14.7833 54.2419 15.3917 54.6752 15.925C55.1085 16.4583 55.7669 16.8667 56.6502 17.15L59.7752 18.075C61.2419 18.525 62.3502 19.1667 63.1002 20C63.8502 20.8333 64.2252 21.8667 64.2252 23.1C64.2252 24.1167 63.9585 25.0167 63.4252 25.8C62.9085 26.5833 62.1835 27.2 61.2502 27.65C60.3335 28.0833 59.2669 28.3 58.0502 28.3ZM67.5373 28V9.075H69.8623V17.15L69.4373 16.925C69.7706 16.075 70.304 15.4167 71.0373 14.95C71.7873 14.4667 72.6623 14.225 73.6623 14.225C74.629 14.225 75.4873 14.4417 76.2373 14.875C77.004 15.3083 77.604 15.9083 78.0373 16.675C78.4873 17.4417 78.7123 18.3083 78.7123 19.275V28H76.3623V20.025C76.3623 19.275 76.2206 18.6417 75.9373 18.125C75.6706 17.6083 75.2956 17.2083 74.8123 16.925C74.329 16.625 73.7706 16.475 73.1373 16.475C72.5206 16.475 71.9623 16.625 71.4623 16.925C70.9623 17.2083 70.5706 17.6167 70.2873 18.15C70.004 18.6667 69.8623 19.2917 69.8623 20.025V28H67.5373ZM88.4393 28.3C87.1393 28.3 85.9643 28 84.9143 27.4C83.8643 26.7833 83.0309 25.9417 82.4143 24.875C81.7976 23.8083 81.4893 22.6 81.4893 21.25C81.4893 19.9 81.7893 18.7 82.3893 17.65C83.0059 16.6 83.8393 15.7667 84.8893 15.15C85.9393 14.5333 87.1226 14.225 88.4393 14.225C89.7393 14.225 90.9143 14.5333 91.9643 15.15C93.0143 15.75 93.8393 16.575 94.4393 17.625C95.0559 18.675 95.3643 19.8833 95.3643 21.25C95.3643 22.6167 95.0476 23.8333 94.4143 24.9C93.7809 25.95 92.9393 26.7833 91.8893 27.4C90.8559 28 89.7059 28.3 88.4393 28.3ZM88.4393 26.05C89.2726 26.05 90.0226 25.8417 90.6893 25.425C91.3726 25.0083 91.9059 24.4333 92.2893 23.7C92.6893 22.9667 92.8893 22.15 92.8893 21.25C92.8893 20.3333 92.6893 19.525 92.2893 18.825C91.9059 18.1083 91.3726 17.5417 90.6893 17.125C90.0226 16.6917 89.2726 16.475 88.4393 16.475C87.5893 16.475 86.8226 16.6917 86.1393 17.125C85.4726 17.5417 84.9393 18.1083 84.5393 18.825C84.1393 19.525 83.9393 20.3333 83.9393 21.25C83.9393 22.15 84.1393 22.9667 84.5393 23.7C84.9393 24.4333 85.4726 25.0083 86.1393 25.425C86.8226 25.8417 87.5893 26.05 88.4393 26.05ZM98.3967 33V14.525H100.672V17.425L100.372 16.85C100.872 16.05 101.555 15.4167 102.422 14.95C103.288 14.4667 104.28 14.225 105.397 14.225C106.663 14.225 107.797 14.5333 108.797 15.15C109.813 15.7667 110.613 16.6083 111.197 17.675C111.78 18.725 112.072 19.925 112.072 21.275C112.072 22.5917 111.78 23.7833 111.197 24.85C110.613 25.9167 109.813 26.7583 108.797 27.375C107.797 27.9917 106.655 28.3 105.372 28.3C104.288 28.3 103.297 28.0583 102.397 27.575C101.513 27.0917 100.83 26.4083 100.347 25.525L100.722 25.125V33H98.3967ZM105.197 26.05C106.047 26.05 106.805 25.8417 107.472 25.425C108.138 25.0083 108.655 24.4417 109.022 23.725C109.405 22.9917 109.597 22.175 109.597 21.275C109.597 20.3417 109.405 19.525 109.022 18.825C108.655 18.1083 108.138 17.5417 107.472 17.125C106.805 16.6917 106.047 16.475 105.197 16.475C104.347 16.475 103.58 16.6833 102.897 17.1C102.23 17.5167 101.697 18.0917 101.297 18.825C100.913 19.5417 100.722 20.3583 100.722 21.275C100.722 22.175 100.913 22.9917 101.297 23.725C101.697 24.4417 102.23 25.0083 102.897 25.425C103.58 25.8417 104.347 26.05 105.197 26.05Z" fill="#0C1F3A"/>
<path d="M37.075 28H36.075V29H37.075V28ZM37.075 9.375V8.375H36.075V9.375H37.075ZM48.875 9.375H49.875V8.375H48.875V9.375ZM48.875 11.625V12.625H49.875V11.625H48.875ZM39.525 11.625V10.625H38.525V11.625H39.525ZM39.525 17.65H38.525V18.65H39.525V17.65ZM48 17.65H49V16.65H48V17.65ZM48 19.9V20.9H49V19.9H48ZM39.525 19.9V18.9H38.525V19.9H39.525ZM39.525 28V29H40.525V28H39.525ZM38.075 28V9.375H36.075V28H38.075ZM37.075 10.375H48.875V8.375H37.075V10.375ZM47.875 9.375V11.625H49.875V9.375H47.875ZM48.875 10.625H39.525V12.625H48.875V10.625ZM38.525 11.625V17.65H40.525V11.625H38.525ZM39.525 18.65H48V16.65H39.525V18.65ZM47 17.65V19.9H49V17.65H47ZM48 18.9H39.525V20.9H48V18.9ZM38.525 19.9V28H40.525V19.9H38.525ZM39.525 27H37.075V29H39.525V27ZM54.8002 27.65L54.384 28.5594L54.3969 28.5651L54.8002 27.65ZM52.3002 25.825L53.0467 25.1596L52.3002 25.825ZM50.8252 23.25L50.4444 22.3253L49.595 22.6751L49.8716 23.5511L50.8252 23.25ZM52.9502 22.375L53.8865 22.0239L53.524 21.0573L52.5694 21.4503L52.9502 22.375ZM54.9502 25.15L54.3575 25.9554L54.366 25.9617L54.3747 25.9678L54.9502 25.15ZM60.0252 25.75L59.6346 24.8294L60.0252 25.75ZM61.3002 24.775L60.4928 24.185L60.4887 24.1907L61.3002 24.775ZM61.1002 21.425L60.3674 22.1055L60.38 22.119L60.3931 22.1321L61.1002 21.425ZM59.1752 20.375L58.8821 21.3311L58.8962 21.3354L58.9105 21.3393L59.1752 20.375ZM55.7502 19.325L55.4553 20.2805L55.4571 20.2811L55.7502 19.325ZM52.6502 17.35L53.4325 16.7271L52.6502 17.35ZM52.3002 11.575L51.4573 11.037L51.4543 11.0417L52.3002 11.575ZM54.3502 9.75L54.7974 10.6445L54.8041 10.641L54.3502 9.75ZM60.3752 9.675L59.969 10.5888L59.9753 10.5915L60.3752 9.675ZM62.7002 11.3L61.9667 11.9798L61.9752 11.9887L62.7002 11.3ZM64.1002 13.6L64.4848 14.5231L65.3528 14.1614L65.0452 13.2729L64.1002 13.6ZM62.0002 14.475L61.0657 14.831L61.4328 15.7947L62.3848 15.3981L62.0002 14.475ZM60.2002 12.1L59.6337 12.924L59.6396 12.9281L59.6455 12.932L60.2002 12.1ZM55.6002 11.625L55.9978 12.5426L56.0048 12.5395L56.0118 12.5364L55.6002 11.625ZM54.4252 12.6L53.5882 12.0527L53.5829 12.0609L54.4252 12.6ZM54.6752 15.925L53.8991 16.5556L54.6752 15.925ZM56.6502 17.15L56.3448 18.1022L56.3555 18.1057L56.3664 18.1089L56.6502 17.15ZM59.7752 18.075L60.0685 17.1189L60.059 17.1161L59.7752 18.075ZM63.1002 20L62.3569 20.669L63.1002 20ZM63.4252 25.8L62.5986 25.2372L62.5945 25.2433L62.5904 25.2494L63.4252 25.8ZM61.2502 27.65L61.6776 28.5541L61.6845 28.5508L61.2502 27.65ZM58.0502 27.3C56.9916 27.3 56.0474 27.1068 55.2035 26.7349L54.3969 28.5651C55.5197 29.0599 56.7422 29.3 58.0502 29.3V27.3ZM55.2163 26.7407C54.352 26.3452 53.6331 25.8176 53.0467 25.1596L51.5537 26.4904C52.3339 27.3658 53.2817 28.0548 54.3841 28.5593L55.2163 26.7407ZM53.0467 25.1596C52.4544 24.4951 52.0349 23.76 51.7788 22.9489L49.8716 23.5511C50.2155 24.64 50.7794 25.6216 51.5537 26.4904L53.0467 25.1596ZM51.2059 24.1747L53.3309 23.2997L52.5694 21.4503L50.4444 22.3253L51.2059 24.1747ZM52.0139 22.7261C52.5202 24.0764 53.2931 25.1722 54.3575 25.9554L55.5429 24.3446C54.8406 23.8278 54.2802 23.0736 53.8865 22.0239L52.0139 22.7261ZM54.3747 25.9678C55.4585 26.7305 56.7137 27.1 58.1002 27.1V25.1C57.0867 25.1 56.2419 24.8362 55.5257 24.3322L54.3747 25.9678ZM58.1002 27.1C58.938 27.1 59.7175 26.9668 60.4157 26.6706L59.6346 24.8294C59.2329 24.9999 58.729 25.1 58.1002 25.1V27.1ZM60.4157 26.6706C61.1062 26.3777 61.6883 25.9473 62.1117 25.3593L60.4887 24.1907C60.312 24.436 60.0442 24.6557 59.6346 24.8294L60.4157 26.6706ZM62.1076 25.365C62.5566 24.7505 62.7752 24.0412 62.7752 23.275H60.7752C60.7752 23.6421 60.6771 23.9328 60.4928 24.185L62.1076 25.365ZM62.7752 23.275C62.7752 22.2915 62.4863 21.3969 61.8073 20.7179L60.3931 22.1321C60.6141 22.3531 60.7752 22.6919 60.7752 23.275H62.7752ZM61.833 20.7445C61.2333 20.0988 60.4031 19.6751 59.4399 19.4107L58.9105 21.3393C59.6472 21.5416 60.1004 21.8179 60.3674 22.1055L61.833 20.7445ZM59.4683 19.4189L56.0433 18.3689L55.4571 20.2811L58.8821 21.3311L59.4683 19.4189ZM56.0451 18.3695C54.8431 17.9985 53.9978 17.437 53.4325 16.7271L51.8679 17.9729C52.7359 19.063 53.9573 19.8182 55.4553 20.2805L56.0451 18.3695ZM53.4325 16.7271C52.8589 16.0068 52.5752 15.1938 52.5752 14.25H50.5752C50.5752 15.6395 51.0081 16.8932 51.8679 17.9729L53.4325 16.7271ZM52.5752 14.25C52.5752 13.3984 52.7754 12.6964 53.1461 12.1083L51.4543 11.0417C50.8584 11.9869 50.5752 13.0683 50.5752 14.25H52.5752ZM53.1431 12.113C53.5416 11.4887 54.0852 11.0005 54.7974 10.6444L53.903 8.85557C52.8818 9.36614 52.0588 10.0946 51.4573 11.037L53.1431 12.113ZM54.8041 10.641C55.5299 10.2713 56.3712 10.075 57.3502 10.075V8.075C56.0959 8.075 54.9371 8.32872 53.8963 8.85896L54.8041 10.641ZM57.3502 10.075C58.3456 10.075 59.213 10.2528 59.9691 10.5888L60.7813 8.76119C59.7374 8.29723 58.5881 8.075 57.3502 8.075V10.075ZM59.9753 10.5915C60.775 10.9405 61.4338 11.4048 61.9668 11.9798L63.4336 10.6202C62.6999 9.82858 61.8087 9.20946 60.7751 8.75846L59.9753 10.5915ZM61.9752 11.9887C62.5105 12.5522 62.902 13.1957 63.1552 13.9271L65.0452 13.2729C64.6984 12.271 64.1566 11.3811 63.4252 10.6112L61.9752 11.9887ZM63.7156 12.6769L61.6156 13.5519L62.3848 15.3981L64.4848 14.5231L63.7156 12.6769ZM62.9347 14.119C62.4735 12.9085 61.7557 11.9352 60.7549 11.2679L59.6455 12.932C60.2447 13.3315 60.7269 13.9415 61.0657 14.831L62.9347 14.119ZM60.7667 11.276C59.781 10.5983 58.6364 10.275 57.3752 10.275V12.275C58.2806 12.275 59.0194 12.5017 59.6337 12.924L60.7667 11.276ZM57.3752 10.275C56.5913 10.275 55.8554 10.4125 55.1886 10.7136L56.0118 12.5364C56.3783 12.3708 56.8258 12.275 57.3752 12.275V10.275ZM55.2026 10.7074C54.533 10.9976 53.9844 11.4468 53.5882 12.0527L55.2622 13.1472C55.4327 12.8865 55.6674 12.6857 55.9978 12.5426L55.2026 10.7074ZM53.5829 12.0609C53.196 12.6655 53.0252 13.3604 53.0252 14.1H55.0252C55.0252 13.6729 55.1211 13.3678 55.2675 13.1391L53.5829 12.0609ZM53.0252 14.1C53.0252 15.0144 53.3218 15.8451 53.8991 16.5556L55.4513 15.2944C55.1619 14.9382 55.0252 14.5523 55.0252 14.1H53.0252ZM53.8991 16.5556C54.4907 17.2837 55.3396 17.7798 56.3448 18.1022L56.9556 16.1978C56.1941 15.9535 55.7264 15.6329 55.4513 15.2944L53.8991 16.5556ZM56.3664 18.1089L59.4914 19.0339L60.059 17.1161L56.934 16.1911L56.3664 18.1089ZM59.4819 19.031C60.8367 19.4467 61.7648 20.0111 62.3569 20.669L63.8435 19.331C62.9355 18.3222 61.6471 17.6033 60.0685 17.119L59.4819 19.031ZM62.3569 20.669C62.9246 21.2997 63.2252 22.087 63.2252 23.1H65.2252C65.2252 21.6464 64.7758 20.3669 63.8435 19.331L62.3569 20.669ZM63.2252 23.1C63.2252 23.9313 63.0106 24.6321 62.5986 25.2372L64.2518 26.3628C64.9065 25.4013 65.2252 24.302 65.2252 23.1H63.2252ZM62.5904 25.2494C62.1833 25.8666 61.604 26.3692 60.8159 26.7492L61.6845 28.5508C62.763 28.0308 63.6337 27.3001 64.26 26.3506L62.5904 25.2494ZM60.8228 26.7459C60.0638 27.1047 59.1482 27.3 58.0502 27.3V29.3C59.3855 29.3 60.6032 29.0619 61.6776 28.5541L60.8228 26.7459ZM67.5373 28H66.5373V29H67.5373V28ZM67.5373 9.075V8.075H66.5373V9.075H67.5373ZM69.8623 9.075H70.8623V8.075H69.8623V9.075ZM69.8623 17.15L69.3944 18.0338L70.8623 18.8109V17.15H69.8623ZM69.4373 16.925L68.5063 16.5599L68.1804 17.3911L68.9694 17.8088L69.4373 16.925ZM71.0373 14.95L71.5742 15.7937L71.579 15.7906L71.0373 14.95ZM76.2373 14.875L75.737 15.7409L75.7452 15.7456L76.2373 14.875ZM78.0373 16.675L77.1667 17.1671L77.1708 17.1742L77.1749 17.1812L78.0373 16.675ZM78.7123 28V29H79.7123V28H78.7123ZM76.3623 28H75.3623V29H76.3623V28ZM75.9373 18.125L75.0487 18.5836L75.0545 18.5948L75.0605 18.6058L75.9373 18.125ZM74.8123 16.925L74.2849 17.7746L74.2957 17.7813L74.3066 17.7877L74.8123 16.925ZM71.4623 16.925L71.9553 17.795L71.9661 17.7889L71.9768 17.7825L71.4623 16.925ZM70.2873 18.15L71.1642 18.6309L71.1704 18.6192L70.2873 18.15ZM69.8623 28V29H70.8623V28H69.8623ZM68.5373 28V9.075H66.5373V28H68.5373ZM67.5373 10.075H69.8623V8.075H67.5373V10.075ZM68.8623 9.075V17.15H70.8623V9.075H68.8623ZM70.3302 16.2662L69.9052 16.0412L68.9694 17.8088L69.3944 18.0338L70.3302 16.2662ZM70.3683 17.2901C70.6284 16.6267 71.029 16.1406 71.5742 15.7937L70.5004 14.1063C69.579 14.6927 68.9129 15.5233 68.5063 16.5599L70.3683 17.2901ZM71.579 15.7906C72.1485 15.4236 72.8305 15.225 73.6623 15.225V13.225C72.4941 13.225 71.4261 13.5098 70.4956 14.1094L71.579 15.7906ZM73.6623 15.225C74.4742 15.225 75.1562 15.4053 75.737 15.7409L76.7376 14.0091C75.8184 13.4781 74.7838 13.225 73.6623 13.225V15.225ZM75.7452 15.7456C76.3537 16.0895 76.8228 16.5586 77.1667 17.1671L78.9079 16.1829C78.3851 15.2581 77.6543 14.5272 76.7294 14.0044L75.7452 15.7456ZM77.1749 17.1812C77.527 17.7811 77.7123 18.4703 77.7123 19.275H79.7123C79.7123 18.1464 79.4476 17.1022 78.8997 16.1688L77.1749 17.1812ZM77.7123 19.275V28H79.7123V19.275H77.7123ZM78.7123 27H76.3623V29H78.7123V27ZM77.3623 28V20.025H75.3623V28H77.3623ZM77.3623 20.025C77.3623 19.1518 77.1974 18.3431 76.8141 17.6442L75.0605 18.6058C75.2439 18.9403 75.3623 19.3982 75.3623 20.025H77.3623ZM76.8259 17.6664C76.4759 16.9882 75.971 16.4451 75.318 16.0623L74.3066 17.7877C74.6202 17.9716 74.8654 18.2285 75.0487 18.5836L76.8259 17.6664ZM75.3397 16.0754C74.6805 15.6662 73.9352 15.475 73.1373 15.475V17.475C73.606 17.475 73.9775 17.5838 74.2849 17.7746L75.3397 16.0754ZM73.1373 15.475C72.3503 15.475 71.6123 15.6688 70.9478 16.0675L71.9768 17.7825C72.3123 17.5812 72.691 17.475 73.1373 17.475V15.475ZM70.9693 16.055C70.2952 16.437 69.772 16.9885 69.4042 17.6808L71.1704 18.6192C71.3693 18.2449 71.6295 17.9797 71.9553 17.795L70.9693 16.055ZM69.4105 17.6692C69.0289 18.365 68.8623 19.1641 68.8623 20.025H70.8623C70.8623 19.4193 70.9791 18.9683 71.1641 18.6308L69.4105 17.6692ZM68.8623 20.025V28H70.8623V20.025H68.8623ZM69.8623 27H67.5373V29H69.8623V27ZM84.9143 27.4L84.4078 28.2623L84.4181 28.2682L84.9143 27.4ZM82.4143 24.875L81.5485 25.3755L82.4143 24.875ZM82.3893 17.65L81.5269 17.1435L81.521 17.1539L82.3893 17.65ZM84.8893 15.15L85.3957 16.0123L84.8893 15.15ZM91.9643 15.15L91.4578 16.0123L91.4681 16.0182L91.9643 15.15ZM94.4393 17.625L93.571 18.1212L93.577 18.1314L94.4393 17.625ZM94.4143 24.9L95.2706 25.4165L95.2741 25.4105L94.4143 24.9ZM91.8893 27.4L92.3914 28.2648L92.3957 28.2623L91.8893 27.4ZM90.6893 25.425L90.1686 24.5712L90.1593 24.577L90.6893 25.425ZM92.2893 23.7L91.4114 23.2211L91.4071 23.2289L91.403 23.2367L92.2893 23.7ZM92.2893 18.825L91.4075 19.2967L91.4141 19.309L91.421 19.3211L92.2893 18.825ZM90.6893 17.125L90.1443 17.9634L90.1563 17.9713L90.1687 17.9788L90.6893 17.125ZM86.1393 17.125L86.6693 17.973L86.6748 17.9695L86.1393 17.125ZM84.5393 18.825L85.4075 19.3212L85.4125 19.3124L84.5393 18.825ZM86.1393 25.425L85.6092 26.2731L85.6187 26.2788L86.1393 25.425ZM88.4393 27.3C87.2998 27.3 86.298 27.039 85.4104 26.5318L84.4181 28.2682C85.6305 28.961 86.9787 29.3 88.4393 29.3V27.3ZM85.4207 26.5377C84.5215 26.0096 83.8112 25.2934 83.28 24.3745L81.5485 25.3755C82.2506 26.5899 83.207 27.557 84.4078 28.2623L85.4207 26.5377ZM83.28 24.3745C82.7596 23.4743 82.4893 22.4416 82.4893 21.25H80.4893C80.4893 22.7584 80.8356 24.1424 81.5485 25.3755L83.28 24.3745ZM82.4893 21.25C82.4893 20.0533 82.7536 19.028 83.2575 18.1461L81.521 17.1539C80.825 18.372 80.4893 19.7467 80.4893 21.25H82.4893ZM83.2515 18.1564C83.7819 17.2534 84.4927 16.5426 85.3957 16.0123L84.3828 14.2877C83.1858 14.9907 82.23 15.9466 81.527 17.1436L83.2515 18.1564ZM85.3957 16.0123C86.2797 15.4931 87.2857 15.225 88.4393 15.225V13.225C86.9595 13.225 85.5988 13.5736 84.3828 14.2877L85.3957 16.0123ZM88.4393 15.225C89.5737 15.225 90.5718 15.4919 91.4578 16.0123L92.4707 14.2877C91.2567 13.5748 89.9048 13.225 88.4393 13.225V15.225ZM91.4681 16.0182C92.3631 16.5297 93.0596 17.2262 93.571 18.1211L95.3075 17.1289C94.6189 15.9238 93.6654 14.9703 92.4604 14.2818L91.4681 16.0182ZM93.577 18.1314C94.0928 19.0097 94.3643 20.0391 94.3643 21.25H96.3643C96.3643 19.7276 96.019 18.3403 95.3015 17.1186L93.577 18.1314ZM94.3643 21.25C94.3643 22.4558 94.0869 23.4927 93.5544 24.3895L95.2741 25.4105C96.0083 24.174 96.3643 22.7775 96.3643 21.25H94.3643ZM93.558 24.3835C93.01 25.292 92.2882 26.006 91.3828 26.5377L92.3957 28.2623C93.5903 27.5607 94.5518 26.608 95.2705 25.4165L93.558 24.3835ZM91.3871 26.5352C90.5156 27.0413 89.5406 27.3 88.4393 27.3V29.3C89.8713 29.3 91.1963 28.9587 92.3914 28.2648L91.3871 26.5352ZM88.4393 27.05C89.4483 27.05 90.384 26.795 91.2193 26.273L90.1593 24.577C89.6612 24.8883 89.0969 25.05 88.4393 25.05V27.05ZM91.2099 26.2788C92.0537 25.7643 92.711 25.0518 93.1755 24.1633L91.403 23.2367C91.1009 23.8148 90.6915 24.2524 90.1687 24.5712L91.2099 26.2788ZM93.1672 24.1789C93.6534 23.2874 93.8893 22.304 93.8893 21.25H91.8893C91.8893 21.996 91.7251 22.646 91.4114 23.2211L93.1672 24.1789ZM93.8893 21.25C93.8893 20.1835 93.6551 19.1997 93.1575 18.3289L91.421 19.3211C91.7234 19.8503 91.8893 20.4831 91.8893 21.25H93.8893ZM93.171 18.3533C92.7049 17.4819 92.048 16.7823 91.2099 16.2712L90.1687 17.9788C90.6972 18.3011 91.1069 18.7347 91.4075 19.2967L93.171 18.3533ZM91.2342 16.2866C90.3974 15.7426 89.4563 15.475 88.4393 15.475V17.475C89.0889 17.475 89.6478 17.6408 90.1443 17.9634L91.2342 16.2866ZM88.4393 15.475C87.4097 15.475 86.4555 15.7403 85.6037 16.2805L86.6748 17.9695C87.1897 17.643 87.7689 17.475 88.4393 17.475V15.475ZM85.6093 16.277C84.7932 16.787 84.1445 17.4805 83.6661 18.3376L85.4125 19.3124C85.734 18.7362 86.1519 18.2963 86.6693 17.973L85.6093 16.277ZM83.671 18.3289C83.1734 19.1997 82.9393 20.1835 82.9393 21.25H84.9393C84.9393 20.4831 85.1051 19.8503 85.4075 19.3211L83.671 18.3289ZM82.9393 21.25C82.9393 22.304 83.1751 23.2874 83.6614 24.1789L85.4172 23.2211C85.1034 22.646 84.9393 21.996 84.9393 21.25H82.9393ZM83.6614 24.1789C84.1383 25.0533 84.7877 25.7595 85.6093 26.273L86.6693 24.577C86.1575 24.2572 85.7402 23.8133 85.4172 23.2211L83.6614 24.1789ZM85.6187 26.2788C86.4686 26.7971 87.4175 27.05 88.4393 27.05V25.05C87.7611 25.05 87.1765 24.8863 86.6599 24.5712L85.6187 26.2788ZM98.3967 33H97.3967V34H98.3967V33ZM98.3967 14.525V13.525H97.3967V14.525H98.3967ZM100.672 14.525H101.672V13.525H100.672V14.525ZM100.672 17.425L99.7851 17.8876L101.672 17.425H100.672ZM100.372 16.85L99.5237 16.32L99.2204 16.8052L99.4851 17.3126L100.372 16.85ZM102.422 14.95L102.896 15.8305L102.902 15.827L102.909 15.8234L102.422 14.95ZM108.797 15.15L108.272 16.0012L108.278 16.005L108.797 15.15ZM111.197 17.675L110.319 18.1548L110.323 18.1606L111.197 17.675ZM111.197 24.85L112.074 25.3298V25.3298L111.197 24.85ZM108.797 27.375L108.278 26.52L108.272 26.5238L108.797 27.375ZM102.397 27.575L101.917 28.4523L101.924 28.456L102.397 27.575ZM100.347 25.525L99.6171 24.8411L99.1217 25.3695L99.4694 26.005L100.347 25.525ZM100.722 25.125H101.722V22.5962L99.9921 24.4411L100.722 25.125ZM100.722 33V34H101.722V33H100.722ZM107.472 25.425L108.002 26.273L107.472 25.425ZM109.022 23.725L108.135 23.2617L108.131 23.2695L109.022 23.725ZM109.022 18.825L108.131 19.2805L108.138 19.293L108.145 19.3053L109.022 18.825ZM107.472 17.125L106.927 17.9634L106.934 17.9683L106.942 17.973L107.472 17.125ZM102.897 17.1L102.376 16.2462L102.367 16.252L102.897 17.1ZM101.297 18.825L100.419 18.3461L100.415 18.3533L101.297 18.825ZM101.297 23.725L100.41 24.1883L100.417 24.2004L100.423 24.2124L101.297 23.725ZM102.897 25.425L102.367 26.2731L102.376 26.2788L102.897 25.425ZM99.3967 33V14.525H97.3967V33H99.3967ZM98.3967 15.525H100.672V13.525H98.3967V15.525ZM99.6717 14.525V17.425H101.672V14.525H99.6717ZM101.558 16.9624L101.258 16.3874L99.4851 17.3126L99.7851 17.8876L101.558 16.9624ZM101.22 17.38C101.624 16.7338 102.175 16.2185 102.896 15.8305L101.948 14.0695C100.935 14.6148 100.12 15.3662 99.5237 16.32L101.22 17.38ZM102.909 15.8234C103.609 15.4331 104.429 15.225 105.397 15.225V13.225C104.131 13.225 102.968 13.5003 101.935 14.0766L102.909 15.8234ZM105.397 15.225C106.493 15.225 107.442 15.4894 108.272 16.0012L109.322 14.2988C108.151 13.5773 106.834 13.225 105.397 13.225V15.225ZM108.278 16.005C109.141 16.5282 109.818 17.239 110.319 18.1548L112.074 17.1952C111.408 15.9777 110.486 15.0051 109.315 14.295L108.278 16.005ZM110.323 18.1606C110.814 19.0444 111.072 20.0735 111.072 21.275H113.072C113.072 19.7765 112.747 18.4056 112.071 17.1894L110.323 18.1606ZM111.072 21.275C111.072 22.4383 110.816 23.4627 110.319 24.3702L112.074 25.3298C112.744 24.104 113.072 22.7451 113.072 21.275H111.072ZM110.319 24.3702C109.818 25.286 109.141 25.9968 108.278 26.52L109.315 28.23C110.486 27.5199 111.408 26.5473 112.074 25.3298L110.319 24.3702ZM108.272 26.5238C107.444 27.0343 106.487 27.3 105.372 27.3V29.3C106.823 29.3 108.149 28.949 109.322 28.2262L108.272 26.5238ZM105.372 27.3C104.443 27.3 103.616 27.0945 102.87 26.694L101.924 28.456C102.978 29.0222 104.134 29.3 105.372 29.3V27.3ZM102.877 26.6977C102.161 26.3061 101.616 25.7607 101.224 25.045L99.4694 26.005C100.044 27.056 100.866 27.8772 101.917 28.4523L102.877 26.6977ZM101.076 26.2089L101.451 25.8089L99.9921 24.4411L99.6171 24.8411L101.076 26.2089ZM99.7217 25.125V33H101.722V25.125H99.7217ZM100.722 32H98.3967V34H100.722V32ZM105.197 27.05C106.218 27.05 107.163 26.7971 108.002 26.273L106.942 24.577C106.447 24.8863 105.875 25.05 105.197 25.05V27.05ZM108.002 26.273C108.826 25.7581 109.465 25.0541 109.912 24.1805L108.131 23.2695C107.845 23.8292 107.451 24.2586 106.942 24.577L108.002 26.273ZM109.908 24.1883C110.372 23.2997 110.597 22.3219 110.597 21.275H108.597C108.597 22.0281 108.438 22.6837 108.135 23.2617L109.908 24.1883ZM110.597 21.275C110.597 20.2024 110.375 19.2151 109.899 18.3447L108.145 19.3053C108.435 19.8349 108.597 20.481 108.597 21.275H110.597ZM109.912 18.3695C109.465 17.4959 108.826 16.7919 108.002 16.277L106.942 17.973C107.451 18.2914 107.845 18.7208 108.131 19.2805L109.912 18.3695ZM108.017 16.2866C107.176 15.7404 106.226 15.475 105.197 15.475V17.475C105.867 17.475 106.434 17.6429 106.927 17.9634L108.017 16.2866ZM105.197 15.475C104.175 15.475 103.226 15.7279 102.376 16.2462L103.417 17.9538C103.934 17.6387 104.518 17.475 105.197 17.475V15.475ZM102.367 16.252C101.545 16.7655 100.896 17.4717 100.419 18.3461L102.175 19.3039C102.498 18.7117 102.915 18.2678 103.427 17.948L102.367 16.252ZM100.415 18.3533C99.9445 19.2328 99.7217 20.2151 99.7217 21.275H101.722C101.722 20.5016 101.882 19.8505 102.178 19.2967L100.415 18.3533ZM99.7217 21.275C99.7217 22.3219 99.946 23.2997 100.41 24.1883L102.183 23.2617C101.881 22.6837 101.722 22.0281 101.722 21.275H99.7217ZM100.423 24.2124C100.902 25.0695 101.551 25.763 102.367 26.273L103.427 24.577C102.909 24.2537 102.491 23.8138 102.17 23.2376L100.423 24.2124ZM102.376 26.2788C103.226 26.7971 104.175 27.05 105.197 27.05V25.05C104.518 25.05 103.934 24.8863 103.417 24.5712L102.376 26.2788Z" fill="black" mask="url(#path-1-outside-1_2002_933)"/>
</g>
<path d="M14.5638 0.993672C16.1873 -0.331062 18.8196 -0.331061 20.4431 0.993672C22.0667 2.31841 22.0693 4.46409 20.4457 5.78883C16.9487 8.64222 11.0398 13.4637 6.72468 16.9846C4.3435 18.9276 3.5748 20.403 3.32673 21.1628C3.25967 21.3682 2.88783 21.4731 2.70365 21.3229C-0.901217 18.3815 -0.901218 13.6125 2.70365 10.671L14.5638 0.993672Z" fill="#7D69FF"/>
<path d="M25.6123 17.6111L17.8367 23.5603C17.1974 24.0494 16.1746 24.0353 15.5575 23.4983C14.9891 23.0037 14.9848 22.237 15.5073 21.731C12.7862 24.0254 12.7148 27.6649 15.4266 30.0247C18.0987 30.3437 20.925 29.695 23.0331 28.0821L30.8087 22.1331C32.3292 20.9697 32.4042 19.0004 30.9752 17.7569C29.5299 16.4992 27.1502 16.4346 25.6123 17.6111Z" fill="#7D69FF"/>
<path d="M15.5072 21.7309C15.5418 21.7045 15.5937 21.6648 15.6282 21.6383L15.7492 21.5458L23.4211 15.6761C24.9417 14.5127 25.0166 12.5434 23.5876 11.2999C22.1586 10.0563 19.7453 9.9908 18.2247 11.1541L10.4491 17.1032C6.73409 19.9456 6.55303 24.7046 10.0281 27.7287C11.5058 29.0146 13.4228 29.7785 15.4266 30.0246C12.7147 27.6647 12.7861 24.0252 15.5072 21.7309Z" fill="#7D69FF"/>
<defs>
<filter id="filter0_d_2002_933" x="32.0752" y="8.07501" width="84.9966" height="33.925" filterUnits="userSpaceOnUse" color-interpolation-filters="sRGB">
<feFlood flood-opacity="0" result="BackgroundImageFix"/>
<feColorMatrix in="SourceAlpha" type="matrix" values="0 0 0 0 0 0 0 0 0 0 0 0 0 0 0 0 0 0 127 0" result="hardAlpha"/>
<feOffset dy="4"/>
<feGaussianBlur stdDeviation="2"/>
<feComposite in2="hardAlpha" operator="out"/>
<feColorMatrix type="matrix" values="0 0 0 0 0 0 0 0 0 0 0 0 0 0 0 0 0 0 0.25 0"/>
<feBlend mode="normal" in2="BackgroundImageFix" result="effect1_dropShadow_2002_933"/>
<feBlend mode="normal" in="SourceGraphic" in2="effect1_dropShadow_2002_933" result="shape"/>
</filter>
</defs>
</svg>
